<?xml version="1.0" encoding="UTF-8"?>
<!DOCTYPE svg PUBLIC "-//W3C//DTD SVG 1.1//EN" "http://www.w3.org/Graphics/SVG/1.1/DTD/svg11.dtd">
<svg xmlns="http://www.w3.org/2000/svg" version="1.1" width="1344px" height="600px" style="shape-rendering:geometricPrecision; text-rendering:geometricPrecision; image-rendering:optimizeQuality; fill-rule:evenodd; clip-rule:evenodd" xmlns:xlink="http://www.w3.org/1999/xlink">
<g><path style="opacity:1" fill="#1e1f22" d="M -0.5,-0.5 C 0.166667,-0.5 0.833333,-0.5 1.5,-0.5C 1.5,32.5 1.5,65.5 1.5,98.5C 1.5,100.5 1.5,102.5 1.5,104.5C 1.5,269.5 1.5,434.5 1.5,599.5C 0.833333,599.5 0.166667,599.5 -0.5,599.5C -0.5,399.5 -0.5,199.5 -0.5,-0.5 Z"/></g>
<g><path style="opacity:1" fill="#fefefe" d="M 1.5,-0.5 C 448.833,-0.5 896.167,-0.5 1343.5,-0.5C 1343.5,32.5 1343.5,65.5 1343.5,98.5C 1343.17,98.5 1342.83,98.5 1342.5,98.5C 896.167,98.5 449.833,98.5 3.5,98.5C 2.83333,98.5 2.16667,98.5 1.5,98.5C 1.5,65.5 1.5,32.5 1.5,-0.5 Z"/></g>
<g><path style="opacity:1" fill="#4b4bda" d="M 942.5,19.5 C 1007.17,19.3333 1071.83,19.5 1136.5,20C 1137.33,20.8333 1138.17,21.6667 1139,22.5C 1139.67,32.1667 1139.67,41.8333 1139,51.5C 1138.17,52.3333 1137.33,53.1667 1136.5,54C 1071.83,54.6667 1007.17,54.6667 942.5,54C 941.667,53.1667 940.833,52.3333 940,51.5C 939.333,41.8333 939.333,32.1667 940,22.5C 940.698,21.3094 941.531,20.3094 942.5,19.5 Z"/></g>
<g><path style="opacity:1" fill="#858585" d="M 412.5,52.5 C 413.822,43.3251 413.822,33.9918 412.5,24.5C 411.669,30.8072 411.169,37.1406 411,43.5C 410.283,42.9558 409.783,42.2891 409.5,41.5C 410.49,35.69 410.823,29.69 410.5,23.5C 411.833,23.5 413.167,23.5 414.5,23.5C 414.832,33.5222 414.499,43.5222 413.5,53.5C 412.893,53.3764 412.56,53.0431 412.5,52.5 Z"/></g>
<g><path style="opacity:1" fill="#242424" d="M 341.5,23.5 C 347.833,23.5 354.167,23.5 360.5,23.5C 360.5,25.1667 360.5,26.8333 360.5,28.5C 354.167,28.5 347.833,28.5 341.5,28.5C 341.5,26.8333 341.5,25.1667 341.5,23.5 Z"/></g>
<g><path style="opacity:1" fill="#ff9428" d="M 363.5,23.5 C 364.5,23.5 365.5,23.5 366.5,23.5C 366.334,29.5092 366.501,35.5092 367,41.5C 370.667,35.8333 374.333,30.1667 378,24.5C 379.494,23.2528 380.994,23.2528 382.5,24.5C 376.582,34.0048 370.415,43.3382 364,52.5C 363.5,42.8391 363.334,33.1724 363.5,23.5 Z"/></g>
<g><path style="opacity:1" fill="#ffd9b0" d="M 390.5,24.5 C 390.56,23.9569 390.893,23.6236 391.5,23.5C 392.823,33.6589 392.823,43.6589 391.5,53.5C 391.827,43.6522 391.494,33.9856 390.5,24.5 Z"/></g>
<g><path style="opacity:1" fill="#1a1a1a" d="M 409.5,41.5 C 409.783,42.2891 410.283,42.9558 411,43.5C 411.169,37.1406 411.669,30.8072 412.5,24.5C 413.822,33.9918 413.822,43.3251 412.5,52.5C 408.259,46.0853 403.426,40.0853 398,34.5C 397.5,40.8246 397.334,47.1579 397.5,53.5C 396.5,53.5 395.5,53.5 394.5,53.5C 394.334,43.8276 394.5,34.1609 395,24.5C 399.851,30.238 404.685,35.9047 409.5,41.5 Z"/></g>
<g><path style="opacity:1" fill="#1c1c1c" d="M 423.5,23.5 C 427.907,23.4127 431.241,25.246 433.5,29C 433.387,30.2798 432.72,31.1131 431.5,31.5C 427.093,25.8975 423.26,26.2308 420,32.5C 418.549,38.639 419.716,44.139 423.5,49C 429.469,49.5355 432.469,46.7022 432.5,40.5C 429.833,40.5 427.167,40.5 424.5,40.5C 424.5,39.1667 424.5,37.8333 424.5,36.5C 428.167,36.5 431.833,36.5 435.5,36.5C 435.933,42.3674 434.266,47.5341 430.5,52C 423.723,54.9371 419.223,52.7705 417,45.5C 416.333,40.8333 416.333,36.1667 417,31.5C 418.305,28.0386 420.471,25.372 423.5,23.5 Z"/></g>
<g><path style="opacity:1" fill="#848484" d="M 452.5,25.5 C 452.56,24.9569 452.893,24.6236 453.5,24.5C 454.823,34.3254 454.823,43.992 453.5,53.5C 453.827,43.985 453.494,34.6517 452.5,25.5 Z"/></g>
<g><path style="opacity:1" fill="#4d4d4d" d="M 468.5,24.5 C 464.833,24.5 461.167,24.5 457.5,24.5C 457.5,34.1667 457.5,43.8333 457.5,53.5C 456.506,43.6806 456.173,33.6806 456.5,23.5C 460.702,23.1832 464.702,23.5166 468.5,24.5 Z"/></g>
<g><path style="opacity:1" fill="#151515" d="M 468.5,24.5 C 474.218,27.2526 476.884,31.9193 476.5,38.5C 475.751,50.5824 469.418,55.5824 457.5,53.5C 457.5,43.8333 457.5,34.1667 457.5,24.5C 461.167,24.5 464.833,24.5 468.5,24.5 Z"/></g>
<g><path style="opacity:1" fill="#797979" d="M 481.5,24.5 C 479.527,33.7755 478.86,43.4422 479.5,53.5C 478.506,43.6806 478.173,33.6806 478.5,23.5C 479.791,23.2627 480.791,23.596 481.5,24.5 Z"/></g>
<g><path style="opacity:1" fill="#030303" d="M 481.5,24.5 C 482.14,34.5578 481.473,44.2245 479.5,53.5C 478.86,43.4422 479.527,33.7755 481.5,24.5 Z"/></g>
<g><path style="opacity:1" fill="#171717" d="M 452.5,25.5 C 453.494,34.6517 453.827,43.985 453.5,53.5C 452.833,53.5 452.167,53.5 451.5,53.5C 451.829,47.4632 451.496,41.4632 450.5,35.5C 449.702,35.9569 449.369,36.6236 449.5,37.5C 445.942,42.2625 442.609,47.2625 439.5,52.5C 437.926,53.6309 436.259,53.7975 434.5,53C 440.635,43.8904 446.635,34.7237 452.5,25.5 Z"/></g>
<g><path style="opacity:1" fill="#ff901f" d="M 390.5,24.5 C 391.494,33.9856 391.827,43.6522 391.5,53.5C 390.833,53.5 390.167,53.5 389.5,53.5C 389.829,47.4632 389.496,41.4632 388.5,35.5C 387.893,35.6236 387.56,35.9569 387.5,36.5C 383.72,41.8854 380.053,47.3854 376.5,53C 375.167,53.6667 373.833,53.6667 372.5,53C 378.751,43.5984 384.751,34.0984 390.5,24.5 Z"/></g>
<g><path style="opacity:1" fill="#f1f1f1" d="M 459.5,27.5 C 470.407,26.6193 474.907,31.6193 473,42.5C 470.756,48.9442 466.256,51.2775 459.5,49.5C 459.5,42.1667 459.5,34.8333 459.5,27.5 Z"/></g>
<g><path style="opacity:1" fill="#7a7777" d="M 763.5,32.5 C 765.176,33.1834 765.843,34.5168 765.5,36.5C 767.167,36.5 768.833,36.5 770.5,36.5C 770.238,35.0222 770.571,33.6888 771.5,32.5C 772.833,35.8333 772.833,39.1667 771.5,42.5C 770.571,41.3112 770.238,39.9778 770.5,38.5C 768.833,38.5 767.167,38.5 765.5,38.5C 765.762,39.9778 765.429,41.3112 764.5,42.5C 763.513,39.2317 763.18,35.8984 763.5,32.5 Z"/></g>
<g><path style="opacity:1" fill="#888686" d="M 824.5,32.5 C 825.5,32.5 826.5,32.5 827.5,32.5C 827.5,33.8333 827.5,35.1667 827.5,36.5C 828.833,36.5 830.167,36.5 831.5,36.5C 831.238,35.0222 831.571,33.6888 832.5,32.5C 833.833,35.8333 833.833,39.1667 832.5,42.5C 831.571,41.3112 831.238,39.9778 831.5,38.5C 830.167,38.5 828.833,38.5 827.5,38.5C 827.5,39.8333 827.5,41.1667 827.5,42.5C 826.5,42.5 825.5,42.5 824.5,42.5C 824.5,39.1667 824.5,35.8333 824.5,32.5 Z"/></g>
<g><path style="opacity:1" fill="#d6d6f6" d="M 1013.5,32.5 C 1014.6,31.4017 1015.93,31.235 1017.5,32C 1016.55,35.0567 1016.22,38.2234 1016.5,41.5C 1018.2,41.3398 1019.87,41.5065 1021.5,42C 1018.83,42.6667 1016.17,42.6667 1013.5,42C 1014.82,38.7312 1014.82,35.5645 1013.5,32.5 Z"/></g>
<g><path style="opacity:1" fill="#787575" d="M 786.5,35.5 C 785.942,37.8234 785.275,40.1568 784.5,42.5C 783.167,39.8333 783.167,37.1667 784.5,34.5C 785.183,34.8627 785.85,35.1961 786.5,35.5 Z"/></g>
<g><path style="opacity:1" fill="#979595" d="M 861.5,34.5 C 862.748,35.3339 863.415,36.6672 863.5,38.5C 863.167,39.8333 862.833,41.1667 862.5,42.5C 861.52,39.9135 861.187,37.2469 861.5,34.5 Z"/></g>
<g><path style="opacity:1" fill="#7e7b7b" d="M 897.5,34.5 C 898.978,34.238 900.311,34.5713 901.5,35.5C 900.119,37.6349 899.119,39.9682 898.5,42.5C 897.52,39.9135 897.187,37.2469 897.5,34.5 Z"/></g>
<g><path style="opacity:1" fill="#e9e8fa" d="M 1063.5,33.5 C 1064.47,33.9867 1065.47,34.4867 1066.5,35C 1063.83,37.3333 1063.83,39.6667 1066.5,42C 1065.55,42.4828 1064.55,42.6495 1063.5,42.5C 1063.25,39.2896 1063.25,36.2896 1063.5,33.5 Z"/></g>
<g><path style="opacity:1" fill="#8c8989" d="M 797.5,34.5 C 804.583,35.6057 804.916,37.2723 798.5,39.5C 800.078,40.2978 801.744,40.7978 803.5,41C 797.206,43.3271 795.206,41.1604 797.5,34.5 Z"/></g>
<g><path style="opacity:1" fill="#807d7d" d="M 837.5,34.5 C 843.488,34.664 844.821,37.164 841.5,42C 835.403,42.1475 834.07,39.6475 837.5,34.5 Z"/></g>
<g><path style="opacity:1" fill="#858282" d="M 844.5,34.5 C 846.117,35.5893 846.95,37.256 847,39.5C 847.154,36.4754 848.654,34.8087 851.5,34.5C 851.678,38.1021 852.678,38.1021 854.5,34.5C 854.833,34.8333 855.167,35.1667 855.5,35.5C 853.969,43.9604 852.136,44.2937 850,36.5C 848.872,38.3453 848.372,40.3453 848.5,42.5C 847.5,42.5 846.5,42.5 845.5,42.5C 845.425,39.7938 845.092,37.1272 844.5,34.5 Z"/></g>
<g><path style="opacity:1" fill="#5c59dc" d="M 1028.5,35.5 C 1028.5,37.5 1028.5,39.5 1028.5,41.5C 1024.65,41.2993 1023.65,39.4659 1025.5,36C 1026.45,35.5172 1027.45,35.3505 1028.5,35.5 Z"/></g>
<g><path style="opacity:1" fill="#9d9d9d" d="M 451.5,53.5 C 450.833,48.1667 450.167,42.8333 449.5,37.5C 449.369,36.6236 449.702,35.9569 450.5,35.5C 451.496,41.4632 451.829,47.4632 451.5,53.5 Z"/></g>
<g><path style="opacity:1" fill="#8b8989" d="M 775.5,34.5 C 781.313,34.062 782.98,36.562 780.5,42C 773.745,42.7558 772.078,40.2558 775.5,34.5 Z"/></g>
<g><path style="opacity:1" fill="#fcfcfc" d="M 776.5,36.5 C 777.5,36.5 778.5,36.5 779.5,36.5C 779.5,37.8333 779.5,39.1667 779.5,40.5C 778.5,40.5 777.5,40.5 776.5,40.5C 776.5,39.1667 776.5,37.8333 776.5,36.5 Z"/></g>
<g><path style="opacity:1" fill="#ededed" d="M 837.5,36.5 C 838.833,36.5 840.167,36.5 841.5,36.5C 841.5,37.8333 841.5,39.1667 841.5,40.5C 840.167,40.5 838.833,40.5 837.5,40.5C 837.5,39.1667 837.5,37.8333 837.5,36.5 Z"/></g>
<g><path style="opacity:1" fill="#8a8888" d="M 873.5,32.5 C 875.48,33.8475 876.647,35.8475 877,38.5C 878.128,36.6547 878.628,34.6547 878.5,32.5C 881.766,32.4326 883.266,34.0992 883,37.5C 884.269,36.0953 884.769,34.4286 884.5,32.5C 885.552,32.3505 886.552,32.5172 887.5,33C 886.58,35.8349 885.58,38.6682 884.5,41.5C 883.675,42.3857 882.675,42.719 881.5,42.5C 881.053,36.8241 880.219,36.4907 879,41.5C 877.989,42.3366 876.822,42.67 875.5,42.5C 875.149,39.0968 874.482,35.7635 873.5,32.5 Z"/></g>
<g><path style="opacity:1" fill="#8b8989" d="M 889.5,34.5 C 895.313,34.062 896.98,36.562 894.5,42C 887.745,42.7558 886.078,40.2558 889.5,34.5 Z"/></g>
<g><path style="opacity:1" fill="#fcfcfc" d="M 890.5,36.5 C 891.5,36.5 892.5,36.5 893.5,36.5C 893.5,37.8333 893.5,39.1667 893.5,40.5C 892.5,40.5 891.5,40.5 890.5,40.5C 890.5,39.1667 890.5,37.8333 890.5,36.5 Z"/></g>
<g><path style="opacity:1" fill="#838080" d="M 903.5,31.5 C 905.117,32.5893 905.95,34.256 906,36.5C 906.965,34.7397 908.132,34.4063 909.5,35.5C 907.385,37.7217 907.719,39.8883 910.5,42C 908.613,42.1626 907.113,41.3293 906,39.5C 905.751,40.624 905.251,41.624 904.5,42.5C 903.511,38.8927 903.177,35.226 903.5,31.5 Z"/></g>
<g><path style="opacity:1" fill="#c5c3f3" d="M 1032.5,34.5 C 1034.17,34.5 1035.83,34.5 1037.5,34.5C 1038.36,38.1616 1037.03,40.3282 1033.5,41C 1035.13,41.4935 1036.8,41.6602 1038.5,41.5C 1038.61,46.3276 1036.45,47.6609 1032,45.5C 1032.39,41.7838 1032.55,38.1171 1032.5,34.5 Z"/></g>
<g><path style="opacity:1" fill="#4c4cda" d="M 1033.5,35.5 C 1034.59,35.62 1035.25,36.2867 1035.5,37.5C 1035.17,38.1667 1034.83,38.8333 1034.5,39.5C 1033.57,38.3112 1033.24,36.9778 1033.5,35.5 Z"/></g>
<g><path style="opacity:1" fill="#111111" d="M 341.5,36.5 C 347.833,36.5 354.167,36.5 360.5,36.5C 360.5,37.8333 360.5,39.1667 360.5,40.5C 354.167,40.5 347.833,40.5 341.5,40.5C 341.5,39.1667 341.5,37.8333 341.5,36.5 Z"/></g>
<g><path style="opacity:1" fill="#ffb666" d="M 387.5,36.5 C 387.56,35.9569 387.893,35.6236 388.5,35.5C 389.496,41.4632 389.829,47.4632 389.5,53.5C 388.833,47.8333 388.167,42.1667 387.5,36.5 Z"/></g>
<g><path style="opacity:1" fill="#deddf8" d="M 1028.5,35.5 C 1027.45,35.3505 1026.45,35.5172 1025.5,36C 1023.65,39.4659 1024.65,41.2993 1028.5,41.5C 1025.34,43.2755 1023.68,42.2755 1023.5,38.5C 1023.68,34.7245 1025.34,33.7245 1028.5,35.5 Z"/></g>
<g><path style="opacity:1" fill="#c1c0f2" d="M 1028.5,35.5 C 1031.17,37.5 1031.17,39.5 1028.5,41.5C 1028.5,39.5 1028.5,37.5 1028.5,35.5 Z"/></g>
<g><path style="opacity:1" fill="#888585" d="M 786.5,35.5 C 788.718,35.4224 791.052,35.2557 793.5,35C 794.777,37.4659 794.777,39.9659 793.5,42.5C 792.167,34.5 790.833,34.5 789.5,42.5C 789.026,39.7833 788.026,37.4499 786.5,35.5 Z"/></g>
<g><path style="opacity:1" fill="#878484" d="M 912.5,34.5 C 914.429,34.2308 916.095,34.7308 917.5,36C 912.287,35.7572 912.287,36.5905 917.5,38.5C 918.731,39.6507 918.731,40.8173 917.5,42C 915.272,42.8201 913.272,42.4868 911.5,41C 917.062,41.3019 917.396,40.4685 912.5,38.5C 911.374,37.1916 911.374,35.8583 912.5,34.5 Z"/></g>
<g><path style="opacity:1" fill="#d0d0f5" d="M 1045.5,31.5 C 1053.62,31.3821 1055.62,34.8821 1051.5,42C 1044.49,43.3236 1041.99,40.4902 1044,33.5C 1044.72,32.9558 1045.22,32.2891 1045.5,31.5 Z"/></g>
<g><path style="opacity:1" fill="#4c4cda" d="M 1046.5,32.5 C 1048.14,32.2865 1049.64,32.6198 1051,33.5C 1051.77,36.0991 1051.6,38.5991 1050.5,41C 1048.89,41.7203 1047.39,41.5536 1046,40.5C 1045.28,37.7395 1045.44,35.0728 1046.5,32.5 Z"/></g>
<g><path style="opacity:1" fill="#d2d1f5" d="M 1054.5,35.5 C 1054.56,34.9569 1054.89,34.6236 1055.5,34.5C 1056.47,36.7427 1056.81,39.076 1056.5,41.5C 1057.5,41.5 1058.5,41.5 1059.5,41.5C 1059.19,39.076 1059.53,36.7427 1060.5,34.5C 1061.48,37.0865 1061.81,39.7531 1061.5,42.5C 1059.5,42.5 1057.5,42.5 1055.5,42.5C 1055.8,39.9407 1055.47,37.6074 1054.5,35.5 Z"/></g>
<g><path style="opacity:1" fill="#848282" d="M 865.5,32.5 C 866.922,32.7496 867.922,33.583 868.5,35C 867.167,37.3333 867.167,39.6667 868.5,42C 867.552,42.4828 866.552,42.6495 865.5,42.5C 865.163,38.9889 865.163,35.6556 865.5,32.5 Z"/></g>
<g><path style="opacity:1" fill="#4b4bda" d="M 1033.5,42.5 C 1034.5,42.5 1035.5,42.5 1036.5,42.5C 1036.5,43.5 1036.5,44.5 1036.5,45.5C 1035.5,45.5 1034.5,45.5 1033.5,45.5C 1033.5,44.5 1033.5,43.5 1033.5,42.5 Z"/></g>
<g><path style="opacity:1" fill="#121212" d="M 341.5,49.5 C 347.833,49.5 354.167,49.5 360.5,49.5C 360.5,50.8333 360.5,52.1667 360.5,53.5C 354.167,53.5 347.833,53.5 341.5,53.5C 341.5,52.1667 341.5,50.8333 341.5,49.5 Z"/></g>
<g><path style="opacity:1" fill="#f4f4f4" d="M 1.5,98.5 C 2.16667,98.5 2.83333,98.5 3.5,98.5C 4.84203,99.793 6.50869,100.626 8.5,101C 230,101.167 451.5,101.333 673,101.5C 894.5,101.333 1116,101.167 1337.5,101C 1339.49,100.626 1341.16,99.793 1342.5,98.5C 1342.83,98.5 1343.17,98.5 1343.5,98.5C 1343.5,100.5 1343.5,102.5 1343.5,104.5C 1340.28,105.03 1337.12,105.696 1334,106.5C 893.333,105.167 452.667,105.167 12,106.5C 8.57229,105.604 5.07229,104.938 1.5,104.5C 1.5,102.5 1.5,100.5 1.5,98.5 Z"/></g>
<g><path style="opacity:1" fill="#e9e9e9" d="M 3.5,98.5 C 449.833,98.5 896.167,98.5 1342.5,98.5C 1341.16,99.793 1339.49,100.626 1337.5,101C 1116,101.167 894.5,101.333 673,101.5C 451.5,101.333 230,101.167 8.5,101C 6.50869,100.626 4.84203,99.793 3.5,98.5 Z"/></g>
<g><path style="opacity:1" fill="#fefefe" d="M 1.5,104.5 C 5.07229,104.938 8.57229,105.604 12,106.5C 452.667,105.167 893.333,105.167 1334,106.5C 1337.12,105.696 1340.28,105.03 1343.5,104.5C 1343.5,269.5 1343.5,434.5 1343.5,599.5C 896.167,599.5 448.833,599.5 1.5,599.5C 1.5,434.5 1.5,269.5 1.5,104.5 Z"/></g>
<g><path style="opacity:1" fill="#4c4bda" d="M 185.5,136.5 C 246.834,136.333 308.168,136.5 369.5,137C 370.667,137.5 371.5,138.333 372,139.5C 372.667,149.167 372.667,158.833 372,168.5C 371.5,169.667 370.667,170.5 369.5,171C 308.167,171.667 246.833,171.667 185.5,171C 184.333,170.5 183.5,169.667 183,168.5C 182.333,158.833 182.333,149.167 183,139.5C 183.698,138.309 184.531,137.309 185.5,136.5 Z"/></g>
<g><path style="opacity:1" fill="#4a6e9e" d="M 997.5,142.5 C 999.176,146.636 1000.18,151.136 1000.5,156C 999.552,156.483 998.552,156.649 997.5,156.5C 997.5,151.833 997.5,147.167 997.5,142.5 Z"/></g>
<g><path style="opacity:1" fill="#5d445e" d="M 1058.5,142.5 C 1059.39,141.224 1060.39,141.224 1061.5,142.5C 1060.77,143.087 1059.77,143.087 1058.5,142.5 Z"/></g>
<g><path style="opacity:1" fill="#62443a" d="M 1139.5,143.5 C 1139.5,145.167 1139.5,146.833 1139.5,148.5C 1143.44,155.249 1141.44,157.916 1133.5,156.5C 1133.35,155.448 1133.52,154.448 1134,153.5C 1135.4,155.192 1137.23,155.859 1139.5,155.5C 1140.36,151.838 1139.03,149.672 1135.5,149C 1136.45,148.517 1137.45,148.351 1138.5,148.5C 1138.5,146.833 1138.5,145.167 1138.5,143.5C 1136.55,143.227 1135.05,143.893 1134,145.5C 1133.52,144.552 1133.35,143.552 1133.5,142.5C 1135.74,142.205 1137.74,142.539 1139.5,143.5 Z"/></g>
<g><path style="opacity:1" fill="#e3a55b" d="M 997.5,142.5 C 997.5,147.167 997.5,151.833 997.5,156.5C 996.761,156.631 996.094,156.464 995.5,156C 996.833,151.667 996.833,147.333 995.5,143C 996.094,142.536 996.761,142.369 997.5,142.5 Z"/></g>
<g><path style="opacity:1" fill="#1c1735" d="M 1127.5,142.5 C 1128.48,146.634 1128.82,150.968 1128.5,155.5C 1128.17,156.833 1127.83,156.833 1127.5,155.5C 1128.04,151.327 1127.38,147.494 1125.5,144C 1126.42,143.722 1127.08,143.222 1127.5,142.5 Z"/></g>
<g><path style="opacity:1" fill="#2f2239" d="M 976.5,153.5 C 975.266,151.34 973.933,149.173 972.5,147C 973.448,146.517 974.448,146.351 975.5,146.5C 975.993,148.806 976.326,151.139 976.5,153.5 Z"/></g>
<g><path style="opacity:1" fill="#553948" d="M 1070.5,146.5 C 1077.37,146.39 1079.21,149.39 1076,155.5C 1075.67,153.167 1075.33,150.833 1075,148.5C 1073.67,147.167 1072.33,147.167 1071,148.5C 1070.81,150.577 1070.31,152.577 1069.5,154.5C 1068.1,151.565 1068.44,148.898 1070.5,146.5 Z"/></g>
<g><path style="opacity:1" fill="#48313d" d="M 1115.5,155.5 C 1115.83,155.5 1116.17,155.5 1116.5,155.5C 1117.5,155.5 1118.5,155.5 1119.5,155.5C 1119.5,152.833 1119.5,150.167 1119.5,147.5C 1118.5,147.5 1117.5,147.5 1116.5,147.5C 1116.17,147.5 1115.83,147.5 1115.5,147.5C 1116.57,146.566 1117.9,146.232 1119.5,146.5C 1119.67,145.178 1119.34,144.011 1118.5,143C 1119.45,142.517 1120.45,142.351 1121.5,142.5C 1121.5,147.167 1121.5,151.833 1121.5,156.5C 1119.26,156.795 1117.26,156.461 1115.5,155.5 Z"/></g>
<g><path style="opacity:1" fill="#2a2c4b" d="M 1139.5,143.5 C 1142.17,145.167 1142.17,146.833 1139.5,148.5C 1139.5,146.833 1139.5,145.167 1139.5,143.5 Z"/></g>
<g><path style="opacity:1" fill="#4170b0" d="M 984.5,146.5 C 986.557,146.957 986.557,147.957 984.5,149.5C 984.5,148.5 984.5,147.5 984.5,146.5 Z"/></g>
<g><path style="opacity:1" fill="#2b4e80" d="M 1046.5,146.5 C 1048.34,146.639 1048.67,147.306 1047.5,148.5C 1046.7,148.043 1046.37,147.376 1046.5,146.5 Z"/></g>
<g><path style="opacity:1" fill="#b06a29" d="M 1057.5,143.5 C 1057.82,147.702 1057.48,151.702 1056.5,155.5C 1056.78,152.552 1056.44,149.719 1055.5,147C 1056.08,145.698 1056.75,144.531 1057.5,143.5 Z"/></g>
<g><path style="opacity:1" fill="#1d1544" d="M 1058.5,142.5 C 1058.23,144.451 1058.89,145.951 1060.5,147C 1059.32,148.18 1058.65,149.68 1058.5,151.5C 1058.65,153.32 1059.32,154.82 1060.5,156C 1058.26,156.797 1056.92,156.63 1056.5,155.5C 1057.48,151.702 1057.82,147.702 1057.5,143.5C 1057.5,142.833 1057.83,142.5 1058.5,142.5 Z"/></g>
<g><path style="opacity:1" fill="#5e1f08" d="M 1080.5,146.5 C 1080.5,149.833 1080.5,153.167 1080.5,156.5C 1079.76,156.631 1079.09,156.464 1078.5,156C 1079.83,153 1079.83,150 1078.5,147C 1079.09,146.536 1079.76,146.369 1080.5,146.5 Z"/></g>
<g><path style="opacity:1" fill="#4b1f16" d="M 1090.5,144.5 C 1090.19,148.371 1090.52,152.038 1091.5,155.5C 1092.24,155.369 1092.91,155.536 1093.5,156C 1092.21,156.49 1090.87,156.657 1089.5,156.5C 1089.78,153.223 1089.45,150.057 1088.5,147C 1089.07,146.005 1089.73,145.172 1090.5,144.5 Z"/></g>
<g><path style="opacity:1" fill="#2f68a9" d="M 1090.5,144.5 C 1091.31,145.469 1092.31,146.302 1093.5,147C 1091.68,149.456 1091.01,152.289 1091.5,155.5C 1090.52,152.038 1090.19,148.371 1090.5,144.5 Z"/></g>
<g><path style="opacity:1" fill="#f8f9ea" d="M 1116.5,147.5 C 1117.5,147.5 1118.5,147.5 1119.5,147.5C 1119.5,150.167 1119.5,152.833 1119.5,155.5C 1118.5,155.5 1117.5,155.5 1116.5,155.5C 1115.17,152.833 1115.17,150.167 1116.5,147.5 Z"/></g>
<g><path style="opacity:1" fill="#ac6f3e" d="M 984.5,146.5 C 984.5,147.5 984.5,148.5 984.5,149.5C 982.443,147.957 982.443,146.957 984.5,146.5 Z"/></g>
<g><path style="opacity:1" fill="#2e0e0f" d="M 1022.5,146.5 C 1022.19,149.713 1022.52,152.713 1023.5,155.5C 1022.75,156.573 1021.75,156.74 1020.5,156C 1021.83,153 1021.83,150 1020.5,147C 1021.09,146.536 1021.76,146.369 1022.5,146.5 Z"/></g>
<g><path style="opacity:1" fill="#291f35" d="M 1063.5,146.5 C 1064.81,146.879 1066.14,147.212 1067.5,147.5C 1066.68,148.386 1065.68,148.719 1064.5,148.5C 1064.23,151.119 1064.56,153.619 1065.5,156C 1064.5,156.667 1063.5,156.667 1062.5,156C 1063.45,152.943 1063.78,149.777 1063.5,146.5 Z"/></g>
<g><path style="opacity:1" fill="#1f275b" d="M 1080.5,146.5 C 1082.47,146.261 1084.3,146.594 1086,147.5C 1086.22,150.426 1086.72,153.26 1087.5,156C 1086.91,156.464 1086.24,156.631 1085.5,156.5C 1085.81,153.615 1085.47,150.948 1084.5,148.5C 1083.79,147.596 1082.79,147.263 1081.5,147.5C 1081.22,150.448 1081.56,153.281 1082.5,156C 1081.91,156.464 1081.24,156.631 1080.5,156.5C 1080.5,153.167 1080.5,149.833 1080.5,146.5 Z"/></g>
<g><path style="opacity:1" fill="#130e2c" d="M 1103.5,147.5 C 1103.56,146.957 1103.89,146.624 1104.5,146.5C 1105.2,149.704 1105.87,152.871 1106.5,156C 1105.5,156.667 1104.5,156.667 1103.5,156C 1104.82,153.063 1104.82,150.23 1103.5,147.5 Z"/></g>
<g><path style="opacity:1" fill="#86400e" d="M 1026.5,148.5 C 1027.47,150.948 1027.81,153.615 1027.5,156.5C 1026.76,156.631 1026.09,156.464 1025.5,156C 1026.44,153.619 1026.77,151.119 1026.5,148.5 Z"/></g>
<g><path style="opacity:1" fill="#2c427b" d="M 1022.5,146.5 C 1024.47,146.261 1026.3,146.594 1028,147.5C 1028.22,150.426 1028.72,153.26 1029.5,156C 1028.91,156.464 1028.24,156.631 1027.5,156.5C 1027.81,153.615 1027.47,150.948 1026.5,148.5C 1025.79,147.596 1024.79,147.263 1023.5,147.5C 1023.5,150.167 1023.5,152.833 1023.5,155.5C 1022.52,152.713 1022.19,149.713 1022.5,146.5 Z"/></g>
<g><path style="opacity:1" fill="#e6a052" d="M 1031.5,148.5 C 1032.47,150.948 1032.81,153.615 1032.5,156.5C 1031.76,156.631 1031.09,156.464 1030.5,156C 1031.44,153.619 1031.77,151.119 1031.5,148.5 Z"/></g>
<g><path style="opacity:1" fill="#1a111a" d="M 1032.5,156.5 C 1032.81,153.615 1032.47,150.948 1031.5,148.5C 1031.08,147.778 1030.42,147.278 1029.5,147C 1030.78,146.316 1031.95,146.483 1033,147.5C 1033.22,150.426 1033.72,153.26 1034.5,156C 1033.91,156.464 1033.24,156.631 1032.5,156.5 Z"/></g>
<g><path style="opacity:1" fill="#bc6f28" d="M 1084.5,148.5 C 1085.47,150.948 1085.81,153.615 1085.5,156.5C 1084.76,156.631 1084.09,156.464 1083.5,156C 1084.44,153.619 1084.77,151.119 1084.5,148.5 Z"/></g>
<g><path style="opacity:1" fill="#451a13" d="M 1106.5,147.5 C 1107.57,146.566 1108.9,146.232 1110.5,146.5C 1110.22,149.777 1110.55,152.943 1111.5,156C 1110.5,156.667 1109.5,156.667 1108.5,156C 1109.6,153.599 1109.77,151.099 1109,148.5C 1108.33,147.748 1107.5,147.414 1106.5,147.5 Z"/></g>
<g><path style="opacity:1" fill="#3c2e3b" d="M 989.5,147.5 C 993.328,145.639 994.995,146.973 994.5,151.5C 992.833,151.5 991.167,151.5 989.5,151.5C 989.22,154.388 990.553,155.888 993.5,156C 989.419,156.923 987.419,155.256 987.5,151C 987.608,149.319 988.275,148.152 989.5,147.5 Z"/></g>
<g><path style="opacity:1" fill="#f4f8f6" d="M 989.5,147.5 C 990.5,147.5 991.5,147.5 992.5,147.5C 992.5,148.5 992.5,149.5 992.5,150.5C 991.5,150.5 990.5,150.5 989.5,150.5C 989.5,149.5 989.5,148.5 989.5,147.5 Z"/></g>
<g><path style="opacity:1" fill="#422b3f" d="M 1003.5,146.5 C 1009.21,146.492 1009.54,146.992 1004.5,148C 1002.25,152.638 1003.58,155.305 1008.5,156C 1002.5,156.993 1000.33,154.493 1002,148.5C 1002.72,147.956 1003.22,147.289 1003.5,146.5 Z"/></g>
<g><path style="opacity:1" fill="#39313f" d="M 1041.5,147.5 C 1043.1,148.287 1043.77,149.62 1043.5,151.5C 1041.83,151.5 1040.17,151.5 1038.5,151.5C 1038.22,154.388 1039.55,155.888 1042.5,156C 1038.42,156.923 1036.42,155.256 1036.5,151C 1036.34,146.823 1038,145.656 1041.5,147.5 Z"/></g>
<g><path style="opacity:1" fill="#f6f6eb" d="M 1041.5,147.5 C 1041.5,148.5 1041.5,149.5 1041.5,150.5C 1040.5,150.5 1039.5,150.5 1038.5,150.5C 1038.5,149.5 1038.5,148.5 1038.5,147.5C 1039.5,147.5 1040.5,147.5 1041.5,147.5 Z"/></g>
<g><path style="opacity:1" fill="#3c2e3b" d="M 1096.5,147.5 C 1100.33,145.639 1101.99,146.973 1101.5,151.5C 1099.83,151.5 1098.17,151.5 1096.5,151.5C 1096.22,154.388 1097.55,155.888 1100.5,156C 1096.42,156.923 1094.42,155.256 1094.5,151C 1094.61,149.319 1095.27,148.152 1096.5,147.5 Z"/></g>
<g><path style="opacity:1" fill="#f4f8f6" d="M 1096.5,147.5 C 1097.5,147.5 1098.5,147.5 1099.5,147.5C 1099.5,148.5 1099.5,149.5 1099.5,150.5C 1098.5,150.5 1097.5,150.5 1096.5,150.5C 1096.5,149.5 1096.5,148.5 1096.5,147.5 Z"/></g>
<g><path style="opacity:1" fill="#46456e" d="M 1115.5,147.5 C 1115.83,147.5 1116.17,147.5 1116.5,147.5C 1115.17,150.167 1115.17,152.833 1116.5,155.5C 1116.17,155.5 1115.83,155.5 1115.5,155.5C 1113.97,154.508 1113.31,153.008 1113.5,151C 1113.61,149.319 1114.27,148.152 1115.5,147.5 Z"/></g>
<g><path style="opacity:1" fill="#cfd0f4" d="M 284.5,151.5 C 287.95,150.756 289.616,152.09 289.5,155.5C 288.167,155.5 286.833,155.5 285.5,155.5C 285.5,156.5 285.5,157.5 285.5,158.5C 286.873,158.343 288.207,158.51 289.5,159C 283.593,159.746 281.927,157.246 284.5,151.5 Z"/></g>
<g><path style="opacity:1" fill="#dbf0fa" d="M 275.5,152.5 C 275.56,151.957 275.893,151.624 276.5,151.5C 277.474,153.743 277.808,156.076 277.5,158.5C 278.5,158.5 279.5,158.5 280.5,158.5C 280.295,155.886 280.295,153.552 280.5,151.5C 281.214,154.027 281.88,156.527 282.5,159C 280.527,159.495 278.527,159.662 276.5,159.5C 276.802,156.941 276.468,154.607 275.5,152.5 Z"/></g>
<g><path style="opacity:1" fill="#d6daf4" d="M 298.5,149.5 C 299.267,150.172 299.934,151.005 300.5,152C 299.577,154.041 299.244,156.208 299.5,158.5C 300.5,158.5 301.5,158.5 302.5,158.5C 302.295,155.886 302.295,153.552 302.5,151.5C 303.214,154.027 303.88,156.527 304.5,159C 302.19,159.497 299.857,159.663 297.5,159.5C 297.253,156.061 297.586,152.728 298.5,149.5 Z"/></g>
<g><path style="opacity:1" fill="#5d5adf" d="M 307.5,152.5 C 311.35,152.701 312.35,154.534 310.5,158C 309.552,158.483 308.552,158.649 307.5,158.5C 307.5,156.5 307.5,154.5 307.5,152.5 Z"/></g>
<g><path style="opacity:1" fill="#d2e2f8" d="M 313.5,152.5 C 320.203,150.213 322.203,152.547 319.5,159.5C 318.526,157.257 318.192,154.924 318.5,152.5C 317.5,152.5 316.5,152.5 315.5,152.5C 315.663,154.857 315.497,157.19 315,159.5C 314.814,156.964 314.314,154.631 313.5,152.5 Z"/></g>
<g><path style="opacity:1" fill="#402b41" d="M 978.5,147.5 C 980.509,149.058 982.176,151.058 983.5,153.5C 983,154.5 982.5,155.5 982,156.5C 980.278,153.721 979.111,150.721 978.5,147.5 Z"/></g>
<g><path style="opacity:1" fill="#594dda" d="M 285.5,152.5 C 287.337,152.639 287.67,153.306 286.5,154.5C 285.702,154.043 285.369,153.376 285.5,152.5 Z"/></g>
<g><path style="opacity:1" fill="#cccbf2" d="M 291.5,151.5 C 292.978,151.238 294.311,151.571 295.5,152.5C 294.603,152.669 293.603,153.002 292.5,153.5C 298.124,157.915 297.457,159.582 290.5,158.5C 291.687,158.446 293.02,158.113 294.5,157.5C 291.479,156.227 290.479,154.227 291.5,151.5 Z"/></g>
<g><path style="opacity:1" fill="#d3d3f4" d="M 236.5,155.5 C 236.544,152.684 237.544,150.351 239.5,148.5C 241.532,151.559 243.199,154.892 244.5,158.5C 246.117,158.331 247.784,157.997 249.5,157.5C 243.909,153.734 244.242,152.067 250.5,152.5C 249.603,152.669 248.603,153.002 247.5,153.5C 248.76,154.382 249.926,155.382 251,156.5C 251.617,157.449 251.451,158.282 250.5,159C 247.167,159.667 243.833,159.667 240.5,159C 241.337,157.989 241.67,156.822 241.5,155.5C 239.833,155.5 238.167,155.5 236.5,155.5 Z"/></g>
<g><path style="opacity:1" fill="#605ae0" d="M 238.5,150.5 C 240.104,151.287 240.771,152.62 240.5,154.5C 239.448,154.649 238.448,154.483 237.5,154C 238.337,152.989 238.67,151.822 238.5,150.5 Z"/></g>
<g><path style="opacity:1" fill="#cdd1f4" d="M 252.5,147.5 C 254.197,149.305 255.03,151.639 255,154.5C 255.333,154.167 255.667,153.833 256,153.5C 256.792,155.587 257.959,157.421 259.5,159C 257.406,159.445 255.906,158.612 255,156.5C 254.751,157.624 254.251,158.624 253.5,159.5C 252.509,155.555 252.176,151.555 252.5,147.5 Z"/></g>
<g><path style="opacity:1" fill="#d8daf4" d="M 307.5,152.5 C 307.5,154.5 307.5,156.5 307.5,158.5C 304.833,156.5 304.833,154.5 307.5,152.5 Z"/></g>
<g><path style="opacity:1" fill="#e3dff3" d="M 307.5,152.5 C 310.657,150.725 312.324,151.725 312.5,155.5C 312.324,159.275 310.657,160.275 307.5,158.5C 308.552,158.649 309.552,158.483 310.5,158C 312.35,154.534 311.35,152.701 307.5,152.5 Z"/></g>
<g><path style="opacity:1" fill="#30376f" d="M 976.5,153.5 C 977.222,153.082 977.722,152.416 978,151.5C 978.52,153.289 978.187,154.956 977,156.5C 976.517,155.552 976.351,154.552 976.5,153.5 Z"/></g>
<g><path style="opacity:1" fill="#4a3c50" d="M 1012.5,146.5 C 1019.25,146.834 1020.92,150 1017.5,156C 1011.5,156.993 1009.33,154.493 1011,148.5C 1011.72,147.956 1012.22,147.289 1012.5,146.5 Z"/></g>
<g><path style="opacity:1" fill="#f7ecde" d="M 1013.5,147.5 C 1014.82,147.33 1015.99,147.663 1017,148.5C 1017.67,150.5 1017.67,152.5 1017,154.5C 1015.67,155.833 1014.33,155.833 1013,154.5C 1012.3,152.071 1012.46,149.738 1013.5,147.5 Z"/></g>
<g><path style="opacity:1" fill="#395d8c" d="M 1046.5,154.5 C 1048.34,154.639 1048.67,155.306 1047.5,156.5C 1046.7,156.043 1046.37,155.376 1046.5,154.5 Z"/></g>
<g><path style="opacity:1" fill="#cccdf1" d="M 236.5,155.5 C 236.33,156.822 236.663,157.989 237.5,159C 236.5,159.667 235.5,159.667 234.5,159C 235.085,157.698 235.751,156.531 236.5,155.5 Z"/></g>
<g><path style="opacity:1" fill="#dcdaf4" d="M 266.5,148.5 C 274.699,148.443 276.699,152.11 272.5,159.5C 272.709,160.086 273.043,160.586 273.5,161C 264.585,160.576 262.251,156.41 266.5,148.5 Z"/></g>
<g><path style="opacity:1" fill="#4e4edc" d="M 267.5,149.5 C 269.144,149.286 270.644,149.62 272,150.5C 272.769,153.099 272.602,155.599 271.5,158C 269.888,158.72 268.388,158.554 267,157.5C 266.278,154.739 266.445,152.073 267.5,149.5 Z"/></g>
<g><path style="opacity:1" fill="#493844" d="M 230.5,225.5 C 231.5,225.5 232.5,225.5 233.5,225.5C 233.5,226.5 233.5,227.5 233.5,228.5C 232.5,228.5 231.5,228.5 230.5,228.5C 230.5,227.5 230.5,226.5 230.5,225.5 Z"/></g>
<g><path style="opacity:1" fill="#2d202c" d="M 225.5,227.5 C 226.922,227.75 227.922,228.583 228.5,230C 227.167,232.667 227.167,235.333 228.5,238C 227.216,238.684 226.049,238.517 225,237.5C 224.774,234.905 224.274,232.405 223.5,230C 224.756,229.583 225.423,228.75 225.5,227.5 Z"/></g>
<g><path style="opacity:1" fill="#2b1f2e" d="M 203.5,229.5 C 204.5,229.5 205.5,229.5 206.5,229.5C 206.5,232.5 206.5,235.5 206.5,238.5C 205.5,238.5 204.5,238.5 203.5,238.5C 203.5,235.5 203.5,232.5 203.5,229.5 Z"/></g>
<g><path style="opacity:1" fill="#2e1c27" d="M 230.5,229.5 C 231.5,229.5 232.5,229.5 233.5,229.5C 233.5,232.5 233.5,235.5 233.5,238.5C 232.5,238.5 231.5,238.5 230.5,238.5C 230.5,235.5 230.5,232.5 230.5,229.5 Z"/></g>
<g><path style="opacity:1" fill="#170f13" d="M 197.5,230.5 C 198.209,229.596 199.209,229.263 200.5,229.5C 200.02,232.685 200.686,235.519 202.5,238C 201.207,238.49 199.873,238.657 198.5,238.5C 198.806,235.615 198.473,232.948 197.5,230.5 Z"/></g>
<g><path style="opacity:1" fill="#222433" d="M 213.5,230.5 C 215.104,231.287 215.771,232.62 215.5,234.5C 214.167,234.5 212.833,234.5 211.5,234.5C 211.5,235.5 211.5,236.5 211.5,237.5C 212.552,237.351 213.552,237.517 214.5,238C 209.008,238.486 207.175,235.986 209,230.5C 210.616,229.199 212.116,229.199 213.5,230.5 Z"/></g>
<g><path style="opacity:1" fill="#ba7c4e" d="M 213.5,230.5 C 213.719,231.675 213.386,232.675 212.5,233.5C 211.202,231.948 211.535,230.948 213.5,230.5 Z"/></g>
<g><path style="opacity:1" fill="#0c091b" d="M 244.5,230.5 C 245.209,229.596 246.209,229.263 247.5,229.5C 247.223,232.448 247.556,235.281 248.5,238C 247.167,238.667 245.833,238.667 244.5,238C 245.814,235.395 245.814,232.895 244.5,230.5 Z"/></g>
<g><path style="opacity:1" fill="#1b0e10" d="M 248.5,230.5 C 249.568,229.566 250.901,229.232 252.5,229.5C 252.223,232.448 252.556,235.281 253.5,238C 252.552,238.483 251.552,238.649 250.5,238.5C 250.663,236.143 250.497,233.81 250,231.5C 249.617,230.944 249.117,230.611 248.5,230.5 Z"/></g>
<g><path style="opacity:1" fill="#2a2a3e" d="M 236.5,229.5 C 243.486,229.331 245.153,232.164 241.5,238C 239.299,238.825 237.466,238.325 236,236.5C 235.297,234.071 235.463,231.738 236.5,229.5 Z"/></g>
<g><path style="opacity:1" fill="#1f161d" d="M 255.5,229.5 C 257.288,229.215 258.955,229.548 260.5,230.5C 259.313,230.554 257.98,230.887 256.5,231.5C 257.328,232.415 258.328,233.081 259.5,233.5C 260.614,234.723 260.781,236.056 260,237.5C 259.3,235.968 258.134,234.968 256.5,234.5C 255.548,232.955 255.215,231.288 255.5,229.5 Z"/></g>
<g><path style="opacity:1" fill="#f9dfab" d="M 238.5,230.5 C 239.725,231.152 240.392,232.319 240.5,234C 240.167,235.167 239.833,236.333 239.5,237.5C 238.526,235.257 238.192,232.924 238.5,230.5 Z"/></g>
<g><path style="opacity:1" fill="#2f2128" d="M 217.5,229.5 C 222.041,229.331 222.374,229.998 218.5,231.5C 220.307,232.395 221.64,233.728 222.5,235.5C 222.392,236.442 222.059,237.275 221.5,238C 219.866,238.494 218.199,238.66 216.5,238.5C 216.275,234.944 217.108,234.61 219,237.5C 219.5,237.167 220,236.833 220.5,236.5C 217.007,235.062 216.007,232.729 217.5,229.5 Z"/></g>
<g><path style="opacity:1" fill="#261c24" d="M 186.5,225.5 C 196.887,225.471 199.22,229.805 193.5,238.5C 194.09,239.799 195.09,240.632 196.5,241C 194.741,241.798 193.074,241.631 191.5,240.5C 188.841,239.188 186.341,237.521 184,235.5C 182.98,231.58 183.813,228.246 186.5,225.5 Z"/></g>
<g><path style="opacity:1" fill="#ede9e3" d="M 187.5,226.5 C 193.156,226.867 194.989,229.867 193,235.5C 191.267,237.602 189.267,237.935 187,236.5C 186.253,233.076 186.42,229.743 187.5,226.5 Z"/></g>
<g><path style="opacity:1" fill="#7f807f" d="M 182.5,267.5 C 501.501,267.167 820.501,267.5 1139.5,268.5C 980,268.833 820.5,269.167 661,269.5C 501.165,269.5 341.665,268.833 182.5,267.5 Z"/></g>
<g><path style="opacity:1" fill="#f8f8f8" d="M 912.5,426.5 C 674.166,426.167 435.832,426.5 197.5,427.5C 435.499,428.5 673.499,428.833 911.5,428.5C 911.099,432.07 909.099,434.236 905.5,435C 666.833,435.667 428.167,435.667 189.5,435C 186,434.167 183.833,432 183,428.5C 182.015,382.108 182.348,335.775 184,289.5C 185.319,287.513 187.152,286.346 189.5,286C 428.167,285.333 666.833,285.333 905.5,286C 909,286.833 911.167,289 912,292.5C 912.5,337.165 912.667,381.832 912.5,426.5 Z"/></g>
<g><path style="opacity:1" fill="#070707" d="M 223.5,300.5 C 238.189,300.024 245.356,307.024 245,321.5C 240.709,333.229 232.542,337.396 220.5,334C 212.114,328.174 209.28,320.341 212,310.5C 214.818,305.839 218.651,302.505 223.5,300.5 Z"/></g>
<g><path style="opacity:1" fill="#060606" d="M 214.5,342.5 C 223.506,342.334 232.506,342.5 241.5,343C 253.11,347.599 258.61,356.099 258,368.5C 257.5,369 257,369.5 256.5,370C 237.5,370.667 218.5,370.667 199.5,370C 196.802,364.377 197.302,358.877 201,353.5C 204.336,348.269 208.836,344.602 214.5,342.5 Z"/></g>
<g><path style="opacity:1" fill="#1c1f31" d="M 463.5,381.5 C 463.5,381.833 463.5,382.167 463.5,382.5C 463.5,384.833 463.5,387.167 463.5,389.5C 462.448,389.649 461.448,389.483 460.5,389C 461.833,385.333 461.833,381.667 460.5,378C 461.448,377.517 462.448,377.351 463.5,377.5C 463.5,378.833 463.5,380.167 463.5,381.5 Z"/></g>
<g><path style="opacity:1" fill="#65464a" d="M 409.5,379.5 C 410.601,378.402 411.934,378.235 413.5,379C 412.033,380.098 411.199,381.598 411,383.5C 410.79,381.942 410.29,380.609 409.5,379.5 Z"/></g>
<g><path style="opacity:1" fill="#294a7a" d="M 441.5,377.5 C 443.337,377.639 443.67,378.306 442.5,379.5C 441.702,379.043 441.369,378.376 441.5,377.5 Z"/></g>
<g><path style="opacity:1" fill="#131129" d="M 511.5,377.5 C 512.794,379.048 513.461,381.048 513.5,383.5C 513.167,385.5 512.833,387.5 512.5,389.5C 511.509,385.555 511.176,381.555 511.5,377.5 Z"/></g>
<g><path style="opacity:1" fill="#2e1832" d="M 596.5,377.5 C 598.337,377.639 598.67,378.306 597.5,379.5C 596.702,379.043 596.369,378.376 596.5,377.5 Z"/></g>
<g><path style="opacity:1" fill="#452d38" d="M 617.5,378.5 C 619.467,378.261 621.301,378.594 623,379.5C 621.861,382.791 621.027,386.125 620.5,389.5C 620.167,388.5 619.833,387.5 619.5,386.5C 620.478,384.223 621.145,381.89 621.5,379.5C 619.876,379.36 618.71,380.027 618,381.5C 617.517,380.552 617.351,379.552 617.5,378.5 Z"/></g>
<g><path style="opacity:1" fill="#6d3a9a" d="M 1135.5,378.5 C 1139.36,379.428 1143.03,380.928 1146.5,383C 1147.45,383.718 1147.62,384.551 1147,385.5C 1143.53,386.903 1140.19,388.57 1137,390.5C 1135.17,389.99 1135.01,389.156 1136.5,388C 1139,387.115 1141.33,385.948 1143.5,384.5C 1141.18,383.338 1138.84,382.171 1136.5,381C 1135.75,380.329 1135.41,379.496 1135.5,378.5 Z"/></g>
<g><path style="opacity:1" fill="#24233a" d="M 562.5,377.5 C 563.675,377.281 564.675,377.614 565.5,378.5C 564.559,378.489 563.892,378.989 563.5,380C 563.429,382.936 563.763,385.936 564.5,389C 563.167,389.667 561.833,389.667 560.5,389C 561.833,386.667 561.833,384.333 560.5,382C 561.267,380.53 561.933,379.03 562.5,377.5 Z"/></g>
<g><path style="opacity:1" fill="#1f2133" d="M 440.5,382.5 C 441.209,381.596 442.209,381.263 443.5,381.5C 443.5,384.167 443.5,386.833 443.5,389.5C 442.448,389.649 441.448,389.483 440.5,389C 441.811,386.726 441.811,384.56 440.5,382.5 Z"/></g>
<g><path style="opacity:1" fill="#3a220e" d="M 482.5,381.5 C 482.5,384.167 482.5,386.833 482.5,389.5C 481.252,388.666 480.585,387.333 480.5,385.5C 480.585,383.667 481.252,382.334 482.5,381.5 Z"/></g>
<g><path style="opacity:1" fill="#291b27" d="M 501.5,382.5 C 502.209,381.596 503.209,381.263 504.5,381.5C 504.873,390.744 505.873,390.744 507.5,381.5C 508.214,384.027 508.88,386.527 509.5,389C 507.19,389.497 504.857,389.663 502.5,389.5C 502.802,386.941 502.468,384.607 501.5,382.5 Z"/></g>
<g><path style="opacity:1" fill="#291b27" d="M 565.5,382.5 C 566.209,381.596 567.209,381.263 568.5,381.5C 568.873,390.744 569.873,390.744 571.5,381.5C 572.214,384.027 572.88,386.527 573.5,389C 571.19,389.497 568.857,389.663 566.5,389.5C 566.802,386.941 566.468,384.607 565.5,382.5 Z"/></g>
<g><path style="opacity:1" fill="#1c091f" d="M 596.5,381.5 C 597.748,382.334 598.415,383.667 598.5,385.5C 598.167,386.833 597.833,388.167 597.5,389.5C 596.52,386.914 596.187,384.247 596.5,381.5 Z"/></g>
<g><path style="opacity:1" fill="#3a220e" d="M 610.5,381.5 C 610.5,384.167 610.5,386.833 610.5,389.5C 609.252,388.666 608.585,387.333 608.5,385.5C 608.585,383.667 609.252,382.334 610.5,381.5 Z"/></g>
<g><path style="opacity:1" fill="#d8a56f" d="M 398.5,379.5 C 400.4,382.518 401.733,385.851 402.5,389.5C 400.103,386.691 398.77,383.358 398.5,379.5 Z"/></g>
<g><path style="opacity:1" fill="#2d1913" d="M 432.5,380.5 C 433.473,380.987 434.473,381.487 435.5,382C 432.833,384.333 432.833,386.667 435.5,389C 434.216,389.684 433.049,389.517 432,388.5C 431.278,385.739 431.445,383.073 432.5,380.5 Z"/></g>
<g><path style="opacity:1" fill="#2d1913" d="M 456.5,380.5 C 457.473,380.987 458.473,381.487 459.5,382C 456.833,384.333 456.833,386.667 459.5,389C 458.216,389.684 457.049,389.517 456,388.5C 455.278,385.739 455.445,383.073 456.5,380.5 Z"/></g>
<g><path style="opacity:1" fill="#271726" d="M 595.5,382.5 C 594.307,382.97 593.64,383.97 593.5,385.5C 593.64,387.03 594.307,388.03 595.5,388.5C 594.432,389.434 593.099,389.768 591.5,389.5C 591.768,386.881 591.435,384.381 590.5,382C 592.315,380.23 593.982,380.397 595.5,382.5 Z"/></g>
<g><path style="opacity:1" fill="#ddf4f7" d="M 595.5,382.5 C 595.5,384.5 595.5,386.5 595.5,388.5C 594.307,388.03 593.64,387.03 593.5,385.5C 593.64,383.97 594.307,382.97 595.5,382.5 Z"/></g>
<g><path style="opacity:1" fill="#2d1407" d="M 416.5,377.5 C 416.5,381.5 416.5,385.5 416.5,389.5C 415.206,387.952 414.539,385.952 414.5,383.5C 414.539,381.048 415.206,379.048 416.5,377.5 Z"/></g>
<g><path style="opacity:1" fill="#243051" d="M 416.5,377.5 C 417.434,378.568 417.768,379.901 417.5,381.5C 420.734,381.237 422.068,382.737 421.5,386C 421.167,387.167 420.833,388.333 420.5,389.5C 419.833,387.167 419.167,384.833 418.5,382.5C 417.832,384.969 417.165,387.302 416.5,389.5C 416.5,385.5 416.5,381.5 416.5,377.5 Z"/></g>
<g><path style="opacity:1" fill="#070f33" d="M 466.5,381.5 C 467.8,384.024 467.8,386.691 466.5,389.5C 465.893,389.376 465.56,389.043 465.5,388.5C 466.468,386.393 466.802,384.059 466.5,381.5 Z"/></g>
<g><path style="opacity:1" fill="#3b2c32" d="M 488.5,382.5 C 489.542,381.209 490.708,381.209 492,382.5C 492.497,384.81 492.663,387.143 492.5,389.5C 491.5,389.5 490.5,389.5 489.5,389.5C 489.802,386.941 489.468,384.607 488.5,382.5 Z"/></g>
<g><path style="opacity:1" fill="#2e2334" d="M 574.5,382.5 C 581.326,379.648 583.993,381.981 582.5,389.5C 581.5,389.5 580.5,389.5 579.5,389.5C 579.127,380.256 578.127,380.256 576.5,389.5C 575.832,387.031 575.165,384.698 574.5,382.5 Z"/></g>
<g><path style="opacity:1" fill="#261d3b" d="M 610.5,381.5 C 612.167,381.5 613.833,381.5 615.5,381.5C 615.353,391.277 614.353,391.611 612.5,382.5C 611.832,384.969 611.165,387.302 610.5,389.5C 610.5,386.833 610.5,384.167 610.5,381.5 Z"/></g>
<g><path style="opacity:1" fill="#191e35" d="M 398.5,379.5 C 399.601,378.402 400.934,378.235 402.5,379C 402.152,381.508 402.819,384.008 404.5,386.5C 404.058,387.739 403.391,388.739 402.5,389.5C 401.733,385.851 400.4,382.518 398.5,379.5 Z"/></g>
<g><path style="opacity:1" fill="#2c2332" d="M 405.5,379.5 C 407.6,381.155 409.266,383.322 410.5,386C 410.138,387.225 409.638,388.391 409,389.5C 408.233,386.497 406.733,383.997 404.5,382C 404.743,381.098 405.077,380.265 405.5,379.5 Z"/></g>
<g><path style="opacity:1" fill="#93846b" d="M 423.5,385.5 C 424.568,384.566 425.901,384.232 427.5,384.5C 427.762,385.978 427.429,387.311 426.5,388.5C 425.859,387.007 424.859,386.007 423.5,385.5 Z"/></g>
<g><path style="opacity:1" fill="#3d1008" d="M 463.5,382.5 C 463.5,382.167 463.5,381.833 463.5,381.5C 464.5,381.5 465.5,381.5 466.5,381.5C 466.802,384.059 466.468,386.393 465.5,388.5C 465.975,385.918 465.308,383.918 463.5,382.5 Z"/></g>
<g><path style="opacity:1" fill="#332934" d="M 470.5,381.5 C 473.95,380.756 475.616,382.09 475.5,385.5C 470.611,385.59 470.277,386.756 474.5,389C 473.167,389.667 471.833,389.667 470.5,389C 469.221,386.502 469.221,384.002 470.5,381.5 Z"/></g>
<g><path style="opacity:1" fill="#2a1c32" d="M 482.5,381.5 C 484.167,381.5 485.833,381.5 487.5,381.5C 487.353,391.277 486.353,391.611 484.5,382.5C 483.832,384.969 483.165,387.302 482.5,389.5C 482.5,386.833 482.5,384.167 482.5,381.5 Z"/></g>
<g><path style="opacity:1" fill="#342f3b" d="M 516.5,381.5 C 519.95,380.756 521.616,382.09 521.5,385.5C 520.167,385.5 518.833,385.5 517.5,385.5C 517.5,386.5 517.5,387.5 517.5,388.5C 518.552,388.351 519.552,388.517 520.5,389C 518.888,389.72 517.388,389.554 516,388.5C 515.297,386.071 515.463,383.738 516.5,381.5 Z"/></g>
<g><path style="opacity:1" fill="#2b1b22" d="M 527.5,381.5 C 531.838,381.622 532.172,381.955 528.5,382.5C 528.5,384.5 528.5,386.5 528.5,388.5C 529.552,388.351 530.552,388.517 531.5,389C 529.888,389.72 528.388,389.554 527,388.5C 526.297,386.071 526.463,383.738 527.5,381.5 Z"/></g>
<g><path style="opacity:1" fill="#332837" d="M 540.5,381.5 C 541.978,381.238 543.311,381.571 544.5,382.5C 543.603,382.669 542.603,383.002 541.5,383.5C 544.279,384.673 544.946,386.507 543.5,389C 538.999,389.663 538.665,389.163 542.5,387.5C 539.61,386.163 538.943,384.163 540.5,381.5 Z"/></g>
<g><path style="opacity:1" fill="#2a1928" d="M 423.5,385.5 C 424.859,386.007 425.859,387.007 426.5,388.5C 427.429,387.311 427.762,385.978 427.5,384.5C 427.53,383.503 427.03,382.836 426,382.5C 424.899,383.291 424.066,383.291 423.5,382.5C 425.353,381.24 427.186,381.24 429,382.5C 429.497,384.81 429.663,387.143 429.5,389.5C 427.5,389.5 425.5,389.5 423.5,389.5C 423.5,388.167 423.5,386.833 423.5,385.5 Z"/></g>
<g><path style="opacity:1" fill="#2a2127" d="M 445.5,381.5 C 446.978,381.238 448.311,381.571 449.5,382.5C 448.603,382.669 447.603,383.002 446.5,383.5C 447.325,384.386 448.325,384.719 449.5,384.5C 449.5,386.167 449.5,387.833 449.5,389.5C 444.959,389.669 444.626,389.002 448.5,387.5C 447.675,386.614 446.675,386.281 445.5,386.5C 445.5,384.833 445.5,383.167 445.5,381.5 Z"/></g>
<g><path style="opacity:1" fill="#7898c9" d="M 498.5,382.5 C 497.835,384.369 497.169,386.369 496.5,388.5C 495.534,386.604 495.201,384.604 495.5,382.5C 496.5,381.167 497.5,381.167 498.5,382.5 Z"/></g>
<g><path style="opacity:1" fill="#2e2734" d="M 533.5,381.5 C 537.893,381.457 538.226,381.957 534.5,383C 535.579,383.956 536.745,384.789 538,385.5C 538.611,389.088 537.111,390.254 533.5,389C 537.251,388.239 537.417,387.072 534,385.5C 533.51,384.207 533.343,382.873 533.5,381.5 Z"/></g>
<g><path style="opacity:1" fill="#2e2734" d="M 550.5,381.5 C 554.893,381.457 555.226,381.957 551.5,383C 552.579,383.956 553.745,384.789 555,385.5C 555.611,389.088 554.111,390.254 550.5,389C 554.251,388.239 554.417,387.072 551,385.5C 550.51,384.207 550.343,382.873 550.5,381.5 Z"/></g>
<g><path style="opacity:1" fill="#38252f" d="M 601.5,381.5 C 607.488,381.664 608.821,384.164 605.5,389C 603.888,389.72 602.388,389.554 601,388.5C 600.297,386.071 600.463,383.738 601.5,381.5 Z"/></g>
<g><path style="opacity:1" fill="#d1e2e9" d="M 602.5,382.5 C 603.693,382.97 604.36,383.97 604.5,385.5C 604.167,386.5 603.833,387.5 603.5,388.5C 602.534,386.604 602.201,384.604 602.5,382.5 Z"/></g>
<g><path style="opacity:1" fill="#392b39" d="M 522.5,386.5 C 524.465,386.948 524.798,387.948 523.5,389.5C 522.614,388.675 522.281,387.675 522.5,386.5 Z"/></g>
<g><path style="opacity:1" fill="#543a38" d="M 495.5,382.5 C 495.201,384.604 495.534,386.604 496.5,388.5C 497.169,386.369 497.835,384.369 498.5,382.5C 499.693,382.97 500.36,383.97 500.5,385.5C 499.906,389.475 497.739,390.475 494,388.5C 493.833,387.5 493.667,386.5 493.5,385.5C 493.64,383.97 494.307,382.97 495.5,382.5 Z"/></g>
<g><path style="opacity:1" fill="#322632" d="M 584.5,381.5 C 586.288,381.215 587.955,381.548 589.5,382.5C 588.443,382.906 587.109,382.906 585.5,382.5C 584.637,386.162 585.97,388.328 589.5,389C 583.593,389.746 581.927,387.246 584.5,381.5 Z"/></g>
<g><path style="opacity:1" fill="#3e253a" d="M 260.5,397.5 C 260.93,401.14 261.93,404.64 263.5,408C 261.833,408.667 260.167,408.667 258.5,408C 259.684,406.82 260.351,405.32 260.5,403.5C 260.351,401.68 259.684,400.18 258.5,399C 259.416,398.722 260.082,398.222 260.5,397.5 Z"/></g>
<g><path style="opacity:1" fill="#7b544a" d="M 265.5,397.5 C 270.123,396.408 271.956,398.075 271,402.5C 269.951,403.517 268.784,403.684 267.5,403C 269.107,401.951 269.773,400.451 269.5,398.5C 268.178,398.33 267.011,398.663 266,399.5C 265.536,398.906 265.369,398.239 265.5,397.5 Z"/></g>
<g><path style="opacity:1" fill="#291641" d="M 204.5,397.5 C 205.186,398.848 206.186,400.015 207.5,401C 205.862,403.133 205.029,405.633 205,408.5C 204.083,404.698 203.917,401.032 204.5,397.5 Z"/></g>
<g><path style="opacity:1" fill="#a89498" d="M 215.5,400.5 C 217.144,400.286 218.644,400.62 220,401.5C 221.67,408.18 219.67,409.846 214,406.5C 213.257,404.126 213.757,402.126 215.5,400.5 Z"/></g>
<g><path style="opacity:1" fill="#5e3234" d="M 222.5,400.5 C 228.367,400.206 230.033,402.872 227.5,408.5C 226.526,406.257 226.192,403.924 226.5,401.5C 225.5,401.5 224.5,401.5 223.5,401.5C 223.663,403.857 223.497,406.19 223,408.5C 222.503,405.854 222.336,403.187 222.5,400.5 Z"/></g>
<g><path style="opacity:1" fill="#42243a" d="M 230.5,399.5 C 231.473,399.987 232.473,400.487 233.5,401C 230.833,403.333 230.833,405.667 233.5,408C 232.552,408.483 231.552,408.649 230.5,408.5C 230.5,405.5 230.5,402.5 230.5,399.5 Z"/></g>
<g><path style="opacity:1" fill="#4a3147" d="M 254.5,396.5 C 255.196,400.231 255.862,404.065 256.5,408C 249.833,409.667 247.833,407.333 250.5,401C 251.793,400.51 253.127,400.343 254.5,400.5C 254.5,399.167 254.5,397.833 254.5,396.5 Z"/></g>
<g><path style="opacity:1" fill="#f5eddc" d="M 251.5,401.5 C 252.5,401.5 253.5,401.5 254.5,401.5C 254.5,403.5 254.5,405.5 254.5,407.5C 253.5,407.5 252.5,407.5 251.5,407.5C 251.5,405.5 251.5,403.5 251.5,401.5 Z"/></g>
<g><path style="opacity:1" fill="#2a1f4e" d="M 242.5,400.5 C 244.167,400.5 245.833,400.5 247.5,400.5C 247.664,403.187 247.497,405.854 247,408.5C 246.503,406.19 246.337,403.857 246.5,401.5C 245.5,401.5 244.5,401.5 243.5,401.5C 243.663,403.857 243.497,406.19 243,408.5C 242.503,405.854 242.336,403.187 242.5,400.5 Z"/></g>
<g><path style="opacity:1" fill="#696870" d="M 235.5,400.5 C 238.95,399.756 240.616,401.09 240.5,404.5C 234.304,404.574 233.97,405.741 239.5,408C 238.167,408.667 236.833,408.667 235.5,408C 234.221,405.502 234.221,403.002 235.5,400.5 Z"/></g>
<g><path style="opacity:1" fill="#564b4f" d="M 265.5,406.5 C 267.086,407.148 268.753,407.648 270.5,408C 269.667,408.167 268.833,408.333 268,408.5C 266.624,408.316 265.791,407.649 265.5,406.5 Z"/></g>
<g><path style="opacity:1" fill="#7f807f" d="M 912.5,426.5 C 996.503,426.167 1080.5,426.5 1164.5,427.5C 1080.17,428.5 995.836,428.833 911.5,428.5C 673.499,428.833 435.499,428.5 197.5,427.5C 435.832,426.5 674.166,426.167 912.5,426.5 Z"/></g>
<g><path style="opacity:1" fill="#f8f8f8" d="M 912.5,586.5 C 674.166,586.167 435.832,586.5 197.5,587.5C 435.499,588.5 673.499,588.833 911.5,588.5C 911.099,592.07 909.099,594.236 905.5,595C 666.833,595.667 428.167,595.667 189.5,595C 186,594.167 183.833,592 183,588.5C 182.015,542.108 182.348,495.775 184,449.5C 185.319,447.513 187.152,446.346 189.5,446C 428.167,445.333 666.833,445.333 905.5,446C 909,446.833 911.167,449 912,452.5C 912.5,497.165 912.667,541.832 912.5,586.5 Z"/></g>
<g><path style="opacity:1" fill="#070707" d="M 223.5,460.5 C 238.189,460.024 245.356,467.024 245,481.5C 240.709,493.229 232.542,497.396 220.5,494C 212.114,488.174 209.28,480.341 212,470.5C 214.818,465.839 218.651,462.505 223.5,460.5 Z"/></g>
<g><path style="opacity:1" fill="#060606" d="M 214.5,502.5 C 223.506,502.334 232.506,502.5 241.5,503C 253.11,507.599 258.61,516.099 258,528.5C 257.5,529 257,529.5 256.5,530C 237.5,530.667 218.5,530.667 199.5,530C 196.802,524.377 197.302,518.877 201,513.5C 204.336,508.269 208.836,504.602 214.5,502.5 Z"/></g>
<g><path style="opacity:1" fill="#65464a" d="M 409.5,539.5 C 410.601,538.402 411.934,538.235 413.5,539C 412.033,540.098 411.199,541.598 411,543.5C 410.79,541.942 410.29,540.609 409.5,539.5 Z"/></g>
<g><path style="opacity:1" fill="#294a7a" d="M 441.5,537.5 C 443.337,537.639 443.67,538.306 442.5,539.5C 441.702,539.043 441.369,538.376 441.5,537.5 Z"/></g>
<g><path style="opacity:1" fill="#294a7a" d="M 494.5,537.5 C 496.337,537.639 496.67,538.306 495.5,539.5C 494.702,539.043 494.369,538.376 494.5,537.5 Z"/></g>
<g><path style="opacity:1" fill="#6d3a9a" d="M 1135.5,538.5 C 1139.36,539.428 1143.03,540.928 1146.5,543C 1147.45,543.718 1147.62,544.551 1147,545.5C 1143.53,546.903 1140.19,548.57 1137,550.5C 1135.17,549.99 1135.01,549.156 1136.5,548C 1139,547.115 1141.33,545.948 1143.5,544.5C 1141.18,543.338 1138.84,542.171 1136.5,541C 1135.75,540.329 1135.41,539.496 1135.5,538.5 Z"/></g>
<g><path style="opacity:1" fill="#2f1f29" d="M 454.5,539.5 C 455.946,538.387 457.613,538.22 459.5,539C 458.62,540.356 458.286,541.856 458.5,543.5C 459.833,543.5 461.167,543.5 462.5,543.5C 462.714,541.856 462.38,540.356 461.5,539C 463.167,538.333 464.833,538.333 466.5,539C 465.167,542.333 465.167,545.667 466.5,549C 464.833,549.667 463.167,549.667 461.5,549C 462.38,547.644 462.714,546.144 462.5,544.5C 461.167,544.5 459.833,544.5 458.5,544.5C 458.286,546.144 458.62,547.644 459.5,549C 457.833,549.667 456.167,549.667 454.5,549C 455.704,547.647 456.371,545.981 456.5,544C 456.431,542.014 455.765,540.514 454.5,539.5 Z"/></g>
<g><path style="opacity:1" fill="#291e31" d="M 530.5,543.5 C 530.5,542.167 530.5,540.833 530.5,539.5C 528.876,539.36 527.71,540.027 527,541.5C 526.517,540.552 526.351,539.552 526.5,538.5C 528.467,538.261 530.301,538.594 532,539.5C 532.844,541.463 532.344,542.796 530.5,543.5 Z"/></g>
<g><path style="opacity:1" fill="#1f2133" d="M 440.5,542.5 C 441.209,541.596 442.209,541.263 443.5,541.5C 443.5,544.167 443.5,546.833 443.5,549.5C 442.448,549.649 441.448,549.483 440.5,549C 441.811,546.726 441.811,544.56 440.5,542.5 Z"/></g>
<g><path style="opacity:1" fill="#403038" d="M 475.5,541.5 C 480.993,540.178 483.493,542.178 483,547.5C 481.89,549.037 480.39,549.703 478.5,549.5C 478.5,550.833 478.5,552.167 478.5,553.5C 477.5,553.5 476.5,553.5 475.5,553.5C 475.5,549.5 475.5,545.5 475.5,541.5 Z"/></g>
<g><path style="opacity:1" fill="#403038" d="M 484.5,541.5 C 489.993,540.178 492.493,542.178 492,547.5C 490.89,549.037 489.39,549.703 487.5,549.5C 487.5,550.833 487.5,552.167 487.5,553.5C 486.5,553.5 485.5,553.5 484.5,553.5C 484.5,549.5 484.5,545.5 484.5,541.5 Z"/></g>
<g><path style="opacity:1" fill="#1f2133" d="M 493.5,542.5 C 494.209,541.596 495.209,541.263 496.5,541.5C 496.5,544.167 496.5,546.833 496.5,549.5C 495.448,549.649 494.448,549.483 493.5,549C 494.811,546.726 494.811,544.56 493.5,542.5 Z"/></g>
<g><path style="opacity:1" fill="#d8a56f" d="M 398.5,539.5 C 400.4,542.518 401.733,545.851 402.5,549.5C 400.103,546.691 398.77,543.358 398.5,539.5 Z"/></g>
<g><path style="opacity:1" fill="#2d1913" d="M 432.5,540.5 C 433.473,540.987 434.473,541.487 435.5,542C 432.833,544.333 432.833,546.667 435.5,549C 434.216,549.684 433.049,549.517 432,548.5C 431.278,545.739 431.445,543.073 432.5,540.5 Z"/></g>
<g><path style="opacity:1" fill="#2d1407" d="M 416.5,537.5 C 416.5,541.5 416.5,545.5 416.5,549.5C 415.206,547.952 414.539,545.952 414.5,543.5C 414.539,541.048 415.206,539.048 416.5,537.5 Z"/></g>
<g><path style="opacity:1" fill="#243051" d="M 416.5,537.5 C 417.434,538.568 417.768,539.901 417.5,541.5C 420.734,541.237 422.068,542.737 421.5,546C 421.167,547.167 420.833,548.333 420.5,549.5C 419.833,547.167 419.167,544.833 418.5,542.5C 417.832,544.969 417.165,547.302 416.5,549.5C 416.5,545.5 416.5,541.5 416.5,537.5 Z"/></g>
<g><path style="opacity:1" fill="#30202a" d="M 468.5,541.5 C 470.167,541.5 471.833,541.5 473.5,541.5C 473.232,544.119 473.565,546.619 474.5,549C 472.19,549.497 469.857,549.663 467.5,549.5C 466.843,546.159 468.176,544.159 471.5,543.5C 470.726,542.289 469.893,542.289 469,543.5C 468.536,542.906 468.369,542.239 468.5,541.5 Z"/></g>
<g><path style="opacity:1" fill="#2e2334" d="M 497.5,542.5 C 504.326,539.648 506.993,541.981 505.5,549.5C 504.5,549.5 503.5,549.5 502.5,549.5C 502.127,540.256 501.127,540.256 499.5,549.5C 498.832,547.031 498.165,544.698 497.5,542.5 Z"/></g>
<g><path style="opacity:1" fill="#191e35" d="M 398.5,539.5 C 399.601,538.402 400.934,538.235 402.5,539C 402.152,541.508 402.819,544.008 404.5,546.5C 404.058,547.739 403.391,548.739 402.5,549.5C 401.733,545.851 400.4,542.518 398.5,539.5 Z"/></g>
<g><path style="opacity:1" fill="#2c2332" d="M 405.5,539.5 C 407.6,541.155 409.266,543.322 410.5,546C 410.138,547.225 409.638,548.391 409,549.5C 408.233,546.497 406.733,543.997 404.5,542C 404.743,541.098 405.077,540.265 405.5,539.5 Z"/></g>
<g><path style="opacity:1" fill="#93846b" d="M 423.5,545.5 C 424.568,544.566 425.901,544.232 427.5,544.5C 427.762,545.978 427.429,547.311 426.5,548.5C 425.859,547.007 424.859,546.007 423.5,545.5 Z"/></g>
<g><path style="opacity:1" fill="#f8edcc" d="M 478.5,542.5 C 479.693,542.97 480.36,543.97 480.5,545.5C 480.167,546.5 479.833,547.5 479.5,548.5C 478.534,546.604 478.201,544.604 478.5,542.5 Z"/></g>
<g><path style="opacity:1" fill="#f8edcc" d="M 487.5,542.5 C 488.693,542.97 489.36,543.97 489.5,545.5C 489.167,546.5 488.833,547.5 488.5,548.5C 487.534,546.604 487.201,544.604 487.5,542.5 Z"/></g>
<g><path style="opacity:1" fill="#33212c" d="M 517.5,548.5 C 516.895,546.974 515.729,545.974 514,545.5C 513.486,541.735 514.986,540.735 518.5,542.5C 517.603,542.669 516.603,543.002 515.5,543.5C 518.203,544.626 518.87,546.293 517.5,548.5 Z"/></g>
<g><path style="opacity:1" fill="#2a1928" d="M 423.5,545.5 C 424.859,546.007 425.859,547.007 426.5,548.5C 427.429,547.311 427.762,545.978 427.5,544.5C 427.53,543.503 427.03,542.836 426,542.5C 424.899,543.291 424.066,543.291 423.5,542.5C 425.353,541.24 427.186,541.24 429,542.5C 429.497,544.81 429.663,547.143 429.5,549.5C 427.5,549.5 425.5,549.5 423.5,549.5C 423.5,548.167 423.5,546.833 423.5,545.5 Z"/></g>
<g><path style="opacity:1" fill="#2a2127" d="M 445.5,541.5 C 446.978,541.238 448.311,541.571 449.5,542.5C 448.603,542.669 447.603,543.002 446.5,543.5C 447.325,544.386 448.325,544.719 449.5,544.5C 449.5,546.167 449.5,547.833 449.5,549.5C 444.959,549.669 444.626,549.002 448.5,547.5C 447.675,546.614 446.675,546.281 445.5,546.5C 445.5,544.833 445.5,543.167 445.5,541.5 Z"/></g>
<g><path style="opacity:1" fill="#3d2b2b" d="M 507.5,541.5 C 510.95,540.756 512.616,542.09 512.5,545.5C 507.389,546.162 507.389,547.328 512.5,549C 506.593,549.746 504.927,547.246 507.5,541.5 Z"/></g>
<g><path style="opacity:1" fill="#282028" d="M 520.5,541.5 C 521.978,541.238 523.311,541.571 524.5,542.5C 523.603,542.669 522.603,543.002 521.5,543.5C 522.325,544.386 523.325,544.719 524.5,544.5C 524.5,546.167 524.5,547.833 524.5,549.5C 519.959,549.669 519.626,549.002 523.5,547.5C 521.022,546.278 520.022,544.278 520.5,541.5 Z"/></g>
<g><path style="opacity:1" fill="#b8dedd" d="M 469.5,545.5 C 471.465,545.948 471.798,546.948 470.5,548.5C 469.614,547.675 469.281,546.675 469.5,545.5 Z"/></g>
<g><path style="opacity:1" fill="#464361" d="M 530.5,543.5 C 529.798,545.557 529.465,547.557 529.5,549.5C 529.167,548.5 528.833,547.5 528.5,546.5C 528.64,544.97 529.307,543.97 530.5,543.5 Z"/></g>
<g><path style="opacity:1" fill="#443639" d="M 517.5,548.5 C 516.292,549.782 514.958,549.782 513.5,548.5C 514.557,548.094 515.891,548.094 517.5,548.5 Z"/></g>
<g><path style="opacity:1" fill="#3e253a" d="M 260.5,557.5 C 260.93,561.14 261.93,564.64 263.5,568C 261.833,568.667 260.167,568.667 258.5,568C 259.684,566.82 260.351,565.32 260.5,563.5C 260.351,561.68 259.684,560.18 258.5,559C 259.416,558.722 260.082,558.222 260.5,557.5 Z"/></g>
<g><path style="opacity:1" fill="#7b544a" d="M 265.5,557.5 C 270.123,556.408 271.956,558.075 271,562.5C 269.951,563.517 268.784,563.684 267.5,563C 269.107,561.951 269.773,560.451 269.5,558.5C 268.178,558.33 267.011,558.663 266,559.5C 265.536,558.906 265.369,558.239 265.5,557.5 Z"/></g>
<g><path style="opacity:1" fill="#291641" d="M 204.5,557.5 C 205.186,558.848 206.186,560.015 207.5,561C 205.862,563.133 205.029,565.633 205,568.5C 204.083,564.698 203.917,561.032 204.5,557.5 Z"/></g>
<g><path style="opacity:1" fill="#a89498" d="M 215.5,560.5 C 217.144,560.286 218.644,560.62 220,561.5C 221.67,568.18 219.67,569.846 214,566.5C 213.257,564.126 213.757,562.126 215.5,560.5 Z"/></g>
<g><path style="opacity:1" fill="#5e3234" d="M 222.5,560.5 C 228.367,560.206 230.033,562.872 227.5,568.5C 226.526,566.257 226.192,563.924 226.5,561.5C 225.5,561.5 224.5,561.5 223.5,561.5C 223.663,563.857 223.497,566.19 223,568.5C 222.503,565.854 222.336,563.187 222.5,560.5 Z"/></g>
<g><path style="opacity:1" fill="#42243a" d="M 230.5,559.5 C 231.473,559.987 232.473,560.487 233.5,561C 230.833,563.333 230.833,565.667 233.5,568C 232.552,568.483 231.552,568.649 230.5,568.5C 230.5,565.5 230.5,562.5 230.5,559.5 Z"/></g>
<g><path style="opacity:1" fill="#4a3147" d="M 254.5,556.5 C 255.196,560.231 255.862,564.065 256.5,568C 249.833,569.667 247.833,567.333 250.5,561C 251.793,560.51 253.127,560.343 254.5,560.5C 254.5,559.167 254.5,557.833 254.5,556.5 Z"/></g>
<g><path style="opacity:1" fill="#f5eddc" d="M 251.5,561.5 C 252.5,561.5 253.5,561.5 254.5,561.5C 254.5,563.5 254.5,565.5 254.5,567.5C 253.5,567.5 252.5,567.5 251.5,567.5C 251.5,565.5 251.5,563.5 251.5,561.5 Z"/></g>
<g><path style="opacity:1" fill="#2a1f4e" d="M 242.5,560.5 C 244.167,560.5 245.833,560.5 247.5,560.5C 247.664,563.187 247.497,565.854 247,568.5C 246.503,566.19 246.337,563.857 246.5,561.5C 245.5,561.5 244.5,561.5 243.5,561.5C 243.663,563.857 243.497,566.19 243,568.5C 242.503,565.854 242.336,563.187 242.5,560.5 Z"/></g>
<g><path style="opacity:1" fill="#696870" d="M 235.5,560.5 C 238.95,559.756 240.616,561.09 240.5,564.5C 234.304,564.574 233.97,565.741 239.5,568C 238.167,568.667 236.833,568.667 235.5,568C 234.221,565.502 234.221,563.002 235.5,560.5 Z"/></g>
<g><path style="opacity:1" fill="#564b4f" d="M 265.5,566.5 C 267.086,567.148 268.753,567.648 270.5,568C 269.667,568.167 268.833,568.333 268,568.5C 266.624,568.316 265.791,567.649 265.5,566.5 Z"/></g>
<g><path style="opacity:1" fill="#7f807f" d="M 912.5,586.5 C 996.503,586.167 1080.5,586.5 1164.5,587.5C 1080.17,588.5 995.836,588.833 911.5,588.5C 673.499,588.833 435.499,588.5 197.5,587.5C 435.832,586.5 674.166,586.167 912.5,586.5 Z"/></g>
</svg>
